# Blender v3.5.1 OBJ File: ''
# www.blender.org
mtllib arrow_small.mtl
o Cylinder
v -0.006569 0.085511 -0.000000
v -0.006569 0.039485 0.000000
v -0.006443 0.085511 0.001094
v -0.006443 0.039485 0.001094
v -0.006069 0.085511 0.002145
v -0.006069 0.039485 0.002145
v -0.005462 0.085511 0.003114
v -0.005462 0.039485 0.003114
v -0.004645 0.085511 0.003963
v -0.004645 0.039485 0.003963
v -0.003650 0.085511 0.004661
v -0.003650 0.039485 0.004661
v -0.002514 0.085511 0.005179
v -0.002514 0.039485 0.005179
v -0.001282 0.085511 0.005497
v -0.001282 0.039485 0.005497
v 0.000000 0.085511 0.005605
v -0.000000 0.039485 0.005605
v 0.001282 0.085511 0.005497
v 0.001282 0.039485 0.005497
v 0.002514 0.085511 0.005179
v 0.002514 0.039485 0.005179
v 0.003650 0.085511 0.004661
v 0.003650 0.039485 0.004661
v 0.004645 0.085511 0.003963
v 0.004645 0.039485 0.003963
v 0.005462 0.085511 0.003114
v 0.005462 0.039485 0.003114
v 0.006069 0.085511 0.002145
v 0.006069 0.039485 0.002145
v 0.006443 0.085511 0.001094
v 0.006443 0.039485 0.001094
v 0.006569 0.085511 -0.000000
v 0.006569 0.039485 0.000000
v 0.006443 0.085511 -0.001094
v 0.006443 0.039485 -0.001094
v 0.006069 0.085511 -0.002145
v 0.006069 0.039485 -0.002145
v 0.005462 0.085511 -0.003114
v 0.005462 0.039485 -0.003114
v 0.004645 0.085511 -0.003963
v 0.004645 0.039485 -0.003963
v 0.003650 0.085511 -0.004661
v 0.003650 0.039485 -0.004661
v 0.002514 0.085511 -0.005179
v 0.002514 0.039485 -0.005179
v 0.001282 0.085511 -0.005497
v 0.001282 0.039485 -0.005497
v 0.000000 0.085511 -0.005605
v -0.000000 0.039485 -0.005605
v -0.001282 0.085511 -0.005497
v -0.001282 0.039485 -0.005497
v -0.002514 0.085511 -0.005179
v -0.002514 0.039485 -0.005179
v -0.003650 0.085511 -0.004661
v -0.003650 0.039485 -0.004661
v -0.004645 0.085511 -0.003963
v -0.004645 0.039485 -0.003963
v -0.005462 0.085511 -0.003114
v -0.005462 0.039485 -0.003114
v -0.006069 0.085511 -0.002145
v -0.006069 0.039485 -0.002145
v -0.006443 0.085511 -0.001094
v -0.006443 0.039485 -0.001094
v -0.022864 0.039953 0.001670
v -0.023312 0.039953 0.000000
v -0.021537 0.039953 0.003276
v -0.019383 0.039953 0.004756
v -0.016484 0.039953 0.006054
v -0.012951 0.039953 0.007119
v -0.008921 0.039953 0.007910
v -0.004548 0.039953 0.008397
v -0.000000 0.039953 0.008561
v 0.004548 0.039953 0.008397
v 0.008921 0.039953 0.007910
v 0.012951 0.039953 0.007119
v 0.016484 0.039953 0.006054
v 0.019383 0.039953 0.004756
v 0.021537 0.039953 0.003276
v 0.022864 0.039953 0.001670
v 0.023312 0.039953 0.000000
v 0.022864 0.039953 -0.001670
v 0.021537 0.039953 -0.003276
v 0.019383 0.039953 -0.004756
v 0.016484 0.039953 -0.006054
v 0.012951 0.039953 -0.007119
v 0.008921 0.039953 -0.007910
v 0.004548 0.039953 -0.008397
v -0.000000 0.039953 -0.008561
v -0.004548 0.039953 -0.008397
v -0.008921 0.039953 -0.007910
v -0.012951 0.039953 -0.007119
v -0.016484 0.039953 -0.006054
v -0.019383 0.039953 -0.004756
v -0.021537 0.039953 -0.003276
v -0.022864 0.039953 -0.001670
v -0.000059 -0.001140 0.000004
v -0.000060 -0.001140 0.000000
v -0.000056 -0.001140 0.000008
v -0.000050 -0.001140 0.000012
v -0.000043 -0.001140 0.000016
v -0.000033 -0.001140 0.000018
v -0.000023 -0.001140 0.000020
v -0.000012 -0.001140 0.000022
v -0.000000 -0.001140 0.000022
v 0.000012 -0.001140 0.000022
v 0.000023 -0.001140 0.000020
v 0.000033 -0.001140 0.000018
v 0.000042 -0.001140 0.000016
v 0.000050 -0.001140 0.000012
v 0.000056 -0.001140 0.000008
v 0.000059 -0.001140 0.000004
v 0.000060 -0.001140 0.000000
v 0.000059 -0.001140 -0.000004
v 0.000056 -0.001140 -0.000008
v 0.000050 -0.001140 -0.000012
v 0.000042 -0.001140 -0.000016
v 0.000033 -0.001140 -0.000018
v 0.000023 -0.001140 -0.000020
v 0.000012 -0.001140 -0.000022
v -0.000000 -0.001140 -0.000022
v -0.000012 -0.001140 -0.000022
v -0.000023 -0.001140 -0.000020
v -0.000033 -0.001140 -0.000018
v -0.000043 -0.001140 -0.000016
v -0.000050 -0.001140 -0.000012
v -0.000056 -0.001140 -0.000008
v -0.000059 -0.001140 -0.000004
vt 1.000000 0.500000
vt 1.000000 1.000000
vt 0.968750 1.000000
vt 0.968750 0.500000
vt 0.937500 1.000000
vt 0.937500 0.500000
vt 0.906250 1.000000
vt 0.906250 0.500000
vt 0.875000 1.000000
vt 0.875000 0.500000
vt 0.843750 1.000000
vt 0.843750 0.500000
vt 0.812500 1.000000
vt 0.812500 0.500000
vt 0.781250 1.000000
vt 0.781250 0.500000
vt 0.750000 1.000000
vt 0.750000 0.500000
vt 0.718750 1.000000
vt 0.718750 0.500000
vt 0.687500 1.000000
vt 0.687500 0.500000
vt 0.656250 1.000000
vt 0.656250 0.500000
vt 0.625000 1.000000
vt 0.625000 0.500000
vt 0.593750 1.000000
vt 0.593750 0.500000
vt 0.562500 1.000000
vt 0.562500 0.500000
vt 0.531250 1.000000
vt 0.531250 0.500000
vt 0.500000 1.000000
vt 0.500000 0.500000
vt 0.468750 1.000000
vt 0.468750 0.500000
vt 0.437500 1.000000
vt 0.437500 0.500000
vt 0.406250 1.000000
vt 0.406250 0.500000
vt 0.375000 1.000000
vt 0.375000 0.500000
vt 0.343750 1.000000
vt 0.343750 0.500000
vt 0.312500 1.000000
vt 0.312500 0.500000
vt 0.281250 1.000000
vt 0.281250 0.500000
vt 0.250000 1.000000
vt 0.250000 0.500000
vt 0.218750 1.000000
vt 0.218750 0.500000
vt 0.187500 1.000000
vt 0.187500 0.500000
vt 0.156250 1.000000
vt 0.156250 0.500000
vt 0.125000 1.000000
vt 0.125000 0.500000
vt 0.093750 1.000000
vt 0.093750 0.500000
vt 0.062500 1.000000
vt 0.062500 0.500000
vt 0.531250 1.000000
vt 0.500000 1.000000
vt 0.031250 1.000000
vt 0.031250 0.500000
vt 0.000000 1.000000
vt 0.000000 0.500000
vt 0.750000 0.490000
vt 0.796822 0.485388
vt 0.841844 0.471731
vt 0.883337 0.449553
vt 0.919706 0.419706
vt 0.949553 0.383337
vt 0.971731 0.341844
vt 0.985388 0.296822
vt 0.990000 0.250000
vt 0.985388 0.203178
vt 0.971731 0.158156
vt 0.949553 0.116663
vt 0.919706 0.080294
vt 0.883337 0.050447
vt 0.841844 0.028269
vt 0.796822 0.014612
vt 0.750000 0.010000
vt 0.703178 0.014612
vt 0.658156 0.028269
vt 0.616663 0.050447
vt 0.580294 0.080294
vt 0.550447 0.116663
vt 0.528269 0.158156
vt 0.514612 0.203178
vt 0.510000 0.250000
vt 0.514612 0.296822
vt 0.528269 0.341844
vt 0.550447 0.383337
vt 0.580294 0.419706
vt 0.616663 0.449553
vt 0.658156 0.471731
vt 0.703178 0.485388
vt 0.968750 1.000000
vt 1.000000 1.000000
vt 1.000000 1.000000
vt 0.968750 1.000000
vt 0.250000 1.000000
vt 0.218750 1.000000
vt 0.937500 1.000000
vt 0.906250 1.000000
vt 0.656250 1.000000
vt 0.625000 1.000000
vt 0.375000 1.000000
vt 0.343750 1.000000
vt 0.093750 1.000000
vt 0.062500 1.000000
vt 0.781250 1.000000
vt 0.750000 1.000000
vt 0.468750 1.000000
vt 0.187500 1.000000
vt 0.875000 1.000000
vt 0.593750 1.000000
vt 0.312500 1.000000
vt 0.031250 1.000000
vt 0.718750 1.000000
vt 0.437500 1.000000
vt 0.156250 1.000000
vt 0.843750 1.000000
vt 0.562500 1.000000
vt 0.281250 1.000000
vt 0.000000 1.000000
vt 0.687500 1.000000
vt 0.406250 1.000000
vt 0.125000 1.000000
vt 0.812500 1.000000
vt 0.296822 0.485388
vt 0.250000 0.490000
vt 0.203178 0.485388
vt 0.158156 0.471731
vt 0.116663 0.449553
vt 0.080294 0.419706
vt 0.050447 0.383337
vt 0.028269 0.341844
vt 0.014612 0.296822
vt 0.010000 0.250000
vt 0.014612 0.203178
vt 0.028269 0.158156
vt 0.050447 0.116663
vt 0.080294 0.080294
vt 0.116663 0.050447
vt 0.158156 0.028269
vt 0.203178 0.014612
vt 0.250000 0.010000
vt 0.296822 0.014612
vt 0.341844 0.028269
vt 0.383337 0.050447
vt 0.419706 0.080294
vt 0.449553 0.116663
vt 0.471731 0.158156
vt 0.485388 0.203178
vt 0.490000 0.250000
vt 0.485388 0.296822
vt 0.471731 0.341844
vt 0.449553 0.383337
vt 0.419706 0.419706
vt 0.383337 0.449553
vt 0.341844 0.471731
vt 0.156250 1.000000
vt 0.125000 1.000000
vt 0.562500 1.000000
vt 0.531250 1.000000
vt 0.937500 1.000000
vt 0.093750 1.000000
vt 0.500000 1.000000
vt 0.906250 1.000000
vt 0.062500 1.000000
vt 0.468750 1.000000
vt 0.875000 1.000000
vt 0.031250 1.000000
vt 0.437500 1.000000
vt 0.843750 1.000000
vt 0.000000 1.000000
vt 0.406250 1.000000
vt 0.812500 1.000000
vt 0.375000 1.000000
vt 0.781250 1.000000
vt 0.343750 1.000000
vt 0.750000 1.000000
vt 0.312500 1.000000
vt 0.718750 1.000000
vt 0.281250 1.000000
vt 0.687500 1.000000
vt 0.250000 1.000000
vt 0.656250 1.000000
vt 0.218750 1.000000
vt 0.625000 1.000000
vt 0.187500 1.000000
vt 0.593750 1.000000
vn -0.7312 0.6822 0.0000
vn -0.6681 0.7441 0.0000
vn -0.6513 0.7445 0.1467
vn -0.7119 0.6825 0.1654
vn -0.6033 0.7459 0.2821
vn -0.6572 0.6834 0.3179
vn -0.5301 0.7489 0.3976
vn -0.5746 0.6846 0.4485
vn -0.4392 0.7540 0.4883
vn -0.4731 0.6859 0.5528
vn -0.3373 0.7616 0.5533
vn -0.3606 0.6871 0.6307
vn -0.2289 0.7707 0.5946
vn -0.2424 0.6880 0.6840
vn -0.1164 0.7779 0.6175
vn -0.1217 0.6885 0.7149
vn 0.0000 0.7800 0.6257
vn 0.0000 0.6887 0.7250
vn 0.1164 0.7779 0.6175
vn 0.1217 0.6885 0.7149
vn 0.2289 0.7707 0.5946
vn 0.2424 0.6880 0.6840
vn 0.3373 0.7616 0.5533
vn 0.3606 0.6871 0.6307
vn 0.4392 0.7540 0.4883
vn 0.4731 0.6859 0.5528
vn 0.5301 0.7489 0.3976
vn 0.5746 0.6846 0.4485
vn 0.6033 0.7459 0.2821
vn 0.6572 0.6834 0.3179
vn 0.6513 0.7445 0.1467
vn 0.7119 0.6825 0.1654
vn 0.6681 0.7441 -0.0000
vn 0.7312 0.6822 -0.0000
vn 0.6513 0.7445 -0.1467
vn 0.7119 0.6825 -0.1654
vn 0.6033 0.7459 -0.2821
vn 0.6572 0.6834 -0.3179
vn 0.5301 0.7489 -0.3976
vn 0.5746 0.6846 -0.4485
vn 0.4392 0.7540 -0.4883
vn 0.4731 0.6859 -0.5528
vn 0.3373 0.7616 -0.5533
vn 0.3606 0.6871 -0.6307
vn 0.2289 0.7707 -0.5946
vn 0.2424 0.6880 -0.6840
vn 0.1164 0.7779 -0.6175
vn 0.1217 0.6885 -0.7149
vn 0.0000 0.7800 -0.6257
vn 0.0000 0.6887 -0.7250
vn -0.1164 0.7779 -0.6175
vn -0.1217 0.6885 -0.7149
vn -0.2289 0.7707 -0.5946
vn -0.2424 0.6880 -0.6840
vn -0.3373 0.7616 -0.5533
vn -0.3606 0.6871 -0.6307
vn -0.4392 0.7540 -0.4883
vn -0.4731 0.6859 -0.5528
vn -0.5301 0.7489 -0.3976
vn -0.5746 0.6846 -0.4485
vn -0.6033 0.7459 -0.2821
vn -0.6572 0.6834 -0.3179
vn 0.7847 0.4859 0.3849
vn 0.8873 0.4611 -0.0000
vn -0.6513 0.7445 -0.1467
vn -0.7119 0.6825 -0.1654
vn -0.7847 0.4859 0.3849
vn -0.8873 0.4611 -0.0000
vn -0.5612 -0.8277 -0.0000
vn -0.5006 -0.8203 0.2766
vn 0.0000 0.6798 -0.7334
vn -0.0512 0.6725 -0.7383
vn -0.5819 0.5357 0.6119
vn -0.4065 0.5796 0.7063
vn 0.1851 0.6364 0.7488
vn 0.2792 0.6119 0.7400
vn 0.2792 0.6119 -0.7400
vn 0.1851 0.6364 -0.7488
vn -0.4065 0.5796 -0.7063
vn -0.5819 0.5357 -0.6119
vn -0.0512 0.6725 0.7383
vn 0.0000 0.6798 0.7334
vn 0.7847 0.4859 -0.3849
vn -0.1116 0.6565 -0.7460
vn -0.2792 0.6119 0.7400
vn 0.4065 0.5796 0.7063
vn 0.1116 0.6565 -0.7460
vn -0.7847 0.4859 -0.3849
vn 0.0512 0.6725 0.7383
vn 0.5819 0.5357 -0.6119
vn -0.1851 0.6364 -0.7488
vn -0.1851 0.6364 0.7488
vn 0.5819 0.5357 0.6119
vn 0.0512 0.6725 -0.7383
vn 0.1116 0.6565 0.7460
vn 0.4065 0.5796 -0.7063
vn -0.2792 0.6119 -0.7400
vn -0.1116 0.6565 0.7460
vn -0.5006 -0.8203 -0.2766
vn -0.3875 -0.8059 -0.4476
vn -0.2880 -0.7928 -0.5371
vn -0.2099 -0.7831 -0.5855
vn -0.1470 -0.7763 -0.6130
vn -0.0935 -0.7719 -0.6288
vn -0.0455 -0.7694 -0.6371
vn -0.0000 -0.7686 -0.6397
vn 0.0455 -0.7694 -0.6371
vn 0.0935 -0.7719 -0.6288
vn 0.1470 -0.7763 -0.6130
vn 0.2099 -0.7831 -0.5855
vn 0.2880 -0.7928 -0.5371
vn 0.3875 -0.8059 -0.4476
vn 0.5006 -0.8203 -0.2766
vn 0.5612 -0.8277 -0.0000
vn 0.5006 -0.8203 0.2766
vn 0.3875 -0.8059 0.4476
vn 0.2880 -0.7928 0.5371
vn 0.2099 -0.7831 0.5855
vn 0.1470 -0.7763 0.6130
vn 0.0935 -0.7719 0.6288
vn 0.0455 -0.7694 0.6371
vn 0.0000 -0.7686 0.6397
vn -0.0455 -0.7694 0.6371
vn -0.0935 -0.7719 0.6288
vn -0.1470 -0.7763 0.6130
vn -0.2099 -0.7831 0.5855
vn -0.2880 -0.7928 0.5371
vn -0.3875 -0.8059 0.4476
usemtl Material.002
s 1
f 1/1/1 2/2/2 4/3/3 3/4/4
f 3/4/4 4/3/3 6/5/5 5/6/6
f 5/6/6 6/5/5 8/7/7 7/8/8
f 7/8/8 8/7/7 10/9/9 9/10/10
f 9/10/10 10/9/9 12/11/11 11/12/12
f 11/12/12 12/11/11 14/13/13 13/14/14
f 13/14/14 14/13/13 16/15/15 15/16/16
f 15/16/16 16/15/15 18/17/17 17/18/18
f 17/18/18 18/17/17 20/19/19 19/20/20
f 19/20/20 20/19/19 22/21/21 21/22/22
f 21/22/22 22/21/21 24/23/23 23/24/24
f 23/24/24 24/23/23 26/25/25 25/26/26
f 25/26/26 26/25/25 28/27/27 27/28/28
f 27/28/28 28/27/27 30/29/29 29/30/30
f 29/30/30 30/29/29 32/31/31 31/32/32
f 31/32/32 32/31/31 34/33/33 33/34/34
f 33/34/34 34/33/33 36/35/35 35/36/36
f 35/36/36 36/35/35 38/37/37 37/38/38
f 37/38/38 38/37/37 40/39/39 39/40/40
f 39/40/40 40/39/39 42/41/41 41/42/42
f 41/42/42 42/41/41 44/43/43 43/44/44
f 43/44/44 44/43/43 46/45/45 45/46/46
f 45/46/46 46/45/45 48/47/47 47/48/48
f 47/48/48 48/47/47 50/49/49 49/50/50
f 49/50/50 50/49/49 52/51/51 51/52/52
f 51/52/52 52/51/51 54/53/53 53/54/54
f 53/54/54 54/53/53 56/55/55 55/56/56
f 55/56/56 56/55/55 58/57/57 57/58/58
f 57/58/58 58/57/57 60/59/59 59/60/60
f 59/60/60 60/59/59 62/61/61 61/62/62
f 34/33/33 32/31/31 80/63/63 81/64/64
f 61/62/62 62/61/61 64/65/65 63/66/66
f 63/66/66 64/65/65 2/67/2 1/68/1
f 1/69/1 3/70/4 5/71/6 7/72/8 9/73/10 11/74/12 13/75/14 15/76/16 17/77/18 19/78/20 21/79/22 23/80/24 25/81/26 27/82/28 29/83/30 31/84/32 33/85/34 35/86/36 37/87/38 39/88/40 41/89/42 43/90/44 45/91/46 47/92/48 49/93/50 51/94/52 53/95/54 55/96/56 57/97/58 59/98/60 61/99/62 63/100/66
f 65/101/67 66/102/68 98/103/69 97/104/70
f 52/51/51 50/49/49 89/105/71 90/106/72
f 8/7/7 6/5/5 67/107/73 68/108/74
f 26/25/25 24/23/23 76/109/75 77/110/76
f 44/43/43 42/41/41 85/111/77 86/112/78
f 62/61/61 60/59/59 94/113/79 95/114/80
f 18/17/17 16/15/15 72/115/81 73/116/82
f 36/35/35 34/33/33 81/64/64 82/117/83
f 54/53/53 52/51/51 90/106/72 91/118/84
f 10/9/9 8/7/7 68/108/74 69/119/85
f 28/27/27 26/25/25 77/110/76 78/120/86
f 46/45/45 44/43/43 86/112/78 87/121/87
f 64/65/65 62/61/61 95/114/80 96/122/88
f 20/19/19 18/17/17 73/116/82 74/123/89
f 38/37/37 36/35/35 82/117/83 83/124/90
f 56/55/55 54/53/53 91/118/84 92/125/91
f 12/11/11 10/9/9 69/119/85 70/126/92
f 30/29/29 28/27/27 78/120/86 79/127/93
f 48/47/47 46/45/45 87/121/87 88/128/94
f 4/3/3 2/2/2 66/102/68 65/101/67
f 2/67/2 64/65/65 96/122/88 66/129/68
f 22/21/21 20/19/19 74/123/89 75/130/95
f 40/39/39 38/37/37 83/124/90 84/131/96
f 58/57/57 56/55/55 92/125/91 93/132/97
f 14/13/13 12/11/11 70/126/92 71/133/98
f 32/31/31 30/29/29 79/127/93 80/63/63
f 50/49/49 48/47/47 88/128/94 89/105/71
f 6/5/5 4/3/3 65/101/67 67/107/73
f 24/23/23 22/21/21 75/130/95 76/109/75
f 42/41/41 40/39/39 84/131/96 85/111/77
f 60/59/59 58/57/57 93/132/97 94/113/79
f 16/15/15 14/13/13 71/133/98 72/115/81
f 97/134/70 98/135/69 128/136/99 127/137/100 126/138/101 125/139/102 124/140/103 123/141/104 122/142/105 121/143/106 120/144/107 119/145/108 118/146/109 117/147/110 116/148/111 115/149/112 114/150/113 113/151/114 112/152/115 111/153/116 110/154/117 109/155/118 108/156/119 107/157/120 106/158/121 105/159/122 104/160/123 103/161/124 102/162/125 101/163/126 100/164/127 99/165/128
f 93/132/97 92/125/91 124/166/103 125/167/102
f 80/63/63 79/127/93 111/168/116 112/169/115
f 67/107/73 65/101/67 97/104/70 99/170/128
f 94/113/79 93/132/97 125/167/102 126/171/101
f 81/64/64 80/63/63 112/169/115 113/172/114
f 68/108/74 67/107/73 99/170/128 100/173/127
f 95/114/80 94/113/79 126/171/101 127/174/100
f 82/117/83 81/64/64 113/172/114 114/175/113
f 69/119/85 68/108/74 100/173/127 101/176/126
f 96/122/88 95/114/80 127/174/100 128/177/99
f 83/124/90 82/117/83 114/175/113 115/178/112
f 70/126/92 69/119/85 101/176/126 102/179/125
f 66/129/68 96/122/88 128/177/99 98/180/69
f 84/131/96 83/124/90 115/178/112 116/181/111
f 71/133/98 70/126/92 102/179/125 103/182/124
f 85/111/77 84/131/96 116/181/111 117/183/110
f 72/115/81 71/133/98 103/182/124 104/184/123
f 86/112/78 85/111/77 117/183/110 118/185/109
f 73/116/82 72/115/81 104/184/123 105/186/122
f 87/121/87 86/112/78 118/185/109 119/187/108
f 74/123/89 73/116/82 105/186/122 106/188/121
f 88/128/94 87/121/87 119/187/108 120/189/107
f 75/130/95 74/123/89 106/188/121 107/190/120
f 89/105/71 88/128/94 120/189/107 121/191/106
f 76/109/75 75/130/95 107/190/120 108/192/119
f 90/106/72 89/105/71 121/191/106 122/193/105
f 77/110/76 76/109/75 108/192/119 109/194/118
f 91/118/84 90/106/72 122/193/105 123/195/104
f 78/120/86 77/110/76 109/194/118 110/196/117
f 92/125/91 91/118/84 123/195/104 124/166/103
f 79/127/93 78/120/86 110/196/117 111/168/116
